<svg xmlns="http://www.w3.org/2000/svg" xmlns:xlink="http://www.w3.org/1999/xlink" width="36" height="36" version="1.1" viewBox="0 0 36 36"><g><g fill="none"><path fill="#E24329" d="M16 27.737l4.421-13.895H11.58z"/><path fill="#FC6D26" d="M16 27.737l-4.47-13.895H5.263z"/><path fill="#FCA326" d="M5.383 13.842l-1.34 4.222a.958.958 0 00.332 1.045L16 27.737 5.383 13.842z"/><path fill="#E24329" d="M5.263 13.842h6.316L8.862 5.328c-.138-.437-.744-.437-.89 0l-2.709 8.514z"/><path fill="#FC6D26" d="M16 27.737l4.47-13.895h6.267L16 27.737z"/><path fill="#FCA326" d="M26.617 13.842l1.34 4.222a.958.958 0 01-.332 1.045L16 27.737l10.617-13.895z"/><path fill="#E24329" d="M26.737 13.842H20.42l2.717-8.514c.138-.437.744-.437.89 0l2.709 8.514z"/></g></g></svg>