<svg xmlns="http://www.w3.org/2000/svg" xmlns:xlink="http://www.w3.org/1999/xlink" width="56" height="56" version="1.1" viewBox="0 0 56 56"><title>icon复制 5</title><desc>Created with Sketch.</desc><defs><linearGradient id="linearGradient-1" x1="21.338%" x2="81.259%" y1="35.035%" y2="64.688%"><stop offset="0%" stop-color="#349CFF"/><stop offset="100%" stop-color="#005DEA"/></linearGradient><linearGradient id="linearGradient-2" x1="28.387%" x2="73.572%" y1="0%" y2="99.076%"><stop offset="0%" stop-color="#349CFF"/><stop offset="100%" stop-color="#005DEA"/></linearGradient><linearGradient id="linearGradient-3" x1="16.563%" x2="109.714%" y1="50%" y2="50%"><stop offset="0%" stop-color="#E2EEFF"/><stop offset="100%" stop-color="#A2BFE8"/></linearGradient><linearGradient id="linearGradient-4" x1="11.49%" x2="86.902%" y1="76.454%" y2="76.454%"><stop offset="0%" stop-color="#349CFF"/><stop offset="100%" stop-color="#005EEA"/></linearGradient><linearGradient id="linearGradient-5" x1="21.338%" x2="81.259%" y1="33.258%" y2="66.432%"><stop offset="0%" stop-color="#349CFF"/><stop offset="100%" stop-color="#005DEA"/></linearGradient><linearGradient id="linearGradient-6" x1="16.042%" x2="87.977%" y1="75.691%" y2="75.691%"><stop offset="0%" stop-color="#455B79"/><stop offset="100%" stop-color="#030D1C"/></linearGradient><linearGradient id="linearGradient-7" x1="13.684%" x2="99.703%" y1="15.607%" y2="100%"><stop offset="0%" stop-color="#455B79"/><stop offset="100%" stop-color="#061A38"/></linearGradient></defs><g id="OA官网" fill="none" fill-rule="evenodd" stroke="none" stroke-width="1"><g id="介绍页-代码分析-指定代码库分支" transform="translate(-300.000000, -1629.000000)"><rect width="1440" height="2635" x="0" y="0" fill="#FFF"/><g id="特性" transform="translate(0.000000, 1418.000000)"><rect id="矩形" width="1440" height="827" x="0" y="0" fill="#FFF"/><g id="全面的构建类型" transform="translate(140.000000, 196.000000)"><rect id="矩形" width="376" height="252" x="0" y="0" fill="#D8D8D8" opacity="0"/><g id="icon复制-5" transform="translate(160.000000, 15.000000)"><g id="icon"><line id="直线" x1="42.167" x2="50.917" y1="20.06" y2="15.463" stroke="url(#linearGradient-1)" stroke-width="1.659"/><polygon id="路径-22" stroke="url(#linearGradient-2)" stroke-width="1.659" points="28 2.507 50.5 14.899 50.5 40.81 28 54.328 5.5 40.81 5.5 14.899"/><polygon id="路径-22" fill="url(#linearGradient-3)" points="28 9.194 44.667 18.388 44.667 37.612 28 47.642 11.333 37.612 11.333 18.388"/><polygon id="路径-21" fill="url(#linearGradient-4)" points="11.333 18.388 28 27.897 28 47.642 11.333 37.612 11.333 38.448"/><line id="直线" x1="28" x2="6.75" y1="28" y2="16.299" stroke="url(#linearGradient-5)" stroke-width="1.659"/><polygon id="路径-21" fill="url(#linearGradient-6)" points="28 18.388 44.667 27.888 44.667 47.642 28 37.612" transform="translate(36.333333, 33.014925) scale(-1, 1) translate(-36.333333, -33.014925)"/><ellipse id="椭圆形" cx="28.417" cy="2.09" fill="url(#linearGradient-7)" rx="2.083" ry="2.09"/><ellipse id="椭圆形" cx="28" cy="27.582" fill="url(#linearGradient-7)" rx="2.083" ry="2.09"/><ellipse id="椭圆形" cx="50.917" cy="15.463" fill="url(#linearGradient-7)" rx="2.083" ry="2.09"/><ellipse id="椭圆形" cx="50.917" cy="40.537" fill="url(#linearGradient-7)" rx="2.083" ry="2.09"/><ellipse id="椭圆形" cx="5.083" cy="41.373" fill="url(#linearGradient-7)" rx="2.083" ry="2.09"/><ellipse id="椭圆形" cx="5.083" cy="15.463" fill="url(#linearGradient-7)" rx="2.083" ry="2.09"/><ellipse id="椭圆形" cx="28.417" cy="53.91" fill="url(#linearGradient-7)" rx="2.083" ry="2.09"/></g></g></g></g></g></g></svg>