<svg xmlns="http://www.w3.org/2000/svg" xmlns:xlink="http://www.w3.org/1999/xlink" width="56" height="56" version="1.1" viewBox="0 0 56 56"><title>icon</title><desc>Created with Sketch.</desc><defs><linearGradient id="linearGradient-1" x1="50%" x2="93.121%" y1="24.616%" y2="97.566%"><stop offset="0%" stop-color="#E2EEFF"/><stop offset="100%" stop-color="#A6C3EC"/></linearGradient><linearGradient id="linearGradient-2" x1="16.042%" x2="87.977%" y1="75.691%" y2="75.691%"><stop offset="0%" stop-color="#455B79"/><stop offset="100%" stop-color="#030D1C"/></linearGradient><linearGradient id="linearGradient-3" x1="11.49%" x2="86.902%" y1="76.454%" y2="76.454%"><stop offset="0%" stop-color="#349CFF"/><stop offset="100%" stop-color="#005EEA"/></linearGradient></defs><g id="OA官网" fill="none" fill-rule="evenodd" stroke="none" stroke-width="1"><g id="介绍页-代码分析-指定代码库分支" transform="translate(-300.000000, -1926.000000)"><rect width="1440" height="2635" x="0" y="0" fill="#FFF"/><g id="特性" transform="translate(0.000000, 1418.000000)"><rect id="矩形" width="1440" height="827" x="0" y="0" fill="#FFF"/><g id="图形化编排" transform="translate(140.000000, 493.000000)"><rect id="矩形" width="376" height="254" x="0" y="0" fill="#D8D8D8" opacity="0"/><g id="icon" transform="translate(160.000000, 15.000000)"><rect id="矩形" width="56" height="56" x="0" y="0" fill="#FFF"/><g id="分组-17" transform="translate(4.000000, 8.800000)"><rect id="矩形" width="48" height="41.6" x="0" y="0" fill="url(#linearGradient-1)"/><rect id="矩形" width="48" height="8.8" x="0" y="0" fill="url(#linearGradient-2)"/><g id="分组-11" transform="translate(3.200000, 16.000000)"><polygon id="路径-2" fill="#202D40" points="12 .8 4.8 8 12 15.2 19.2 8"/><polygon id="路径-2" fill="url(#linearGradient-3)" points="8 0 0 8 8 16 16 8"/></g><rect id="矩形" width="9.6" height="2.4" x="24.8" y="29.6" fill="#202D40"/></g></g></g></g></g></g></svg>