<svg xmlns="http://www.w3.org/2000/svg" xmlns:xlink="http://www.w3.org/1999/xlink" width="24" height="24" version="1.1" viewBox="0 0 24 24"><title>default-avatar</title><desc>Created with Sketch.</desc><g id="缺陷/详情" fill="none" fill-rule="evenodd" stroke="none" stroke-width="1"><g id="缺陷详情属性状态" transform="translate(-193.000000, -151.000000)"><g id="details" transform="translate(98.000000, 151.000000)"><g id="assignee"><g id="default-avatar" transform="translate(95.000000, 0.000000)"><circle id="Oval-4" cx="12" cy="12" r="12" fill="#E1E3E6"/><path id="Path" fill="#FFF" d="M8,10 C8,7.791 9.844,6 12,6 C14.156,6 16,7.791 16,10 L16,11 C16,13.209 14.156,15 12,15 C9.844,15 8,13.209 8,11 L8,10 Z"/><path id="Path" fill="#FFF" d="M12,22 C9.71941884,22 7.62724574,21.124 6,19.674 C6.78643962,18.091 8.32838619,17 10.1252929,17 L13.8747071,17 C15.6716138,17 17.2135604,18.091 18,19.674 C16.3727543,21.124 14.2805812,22 12,22 Z"/></g></g></g></g></g></svg>