<svg xmlns="http://www.w3.org/2000/svg" xmlns:xlink="http://www.w3.org/1999/xlink" width="103" height="102" version="1.1" viewBox="0 0 103 102"><title>列表空白页</title><desc>Created with Sketch.</desc><defs><rect id="path-1" width="76" height="88" x="0" y="0" rx="3"/><filter id="filter-2" width="113.2%" height="111.4%" x="-6.6%" y="-4.5%" filterUnits="objectBoundingBox"><feOffset dx="0" dy="1" in="SourceAlpha" result="shadowOffsetOuter1"/><feGaussianBlur in="shadowOffsetOuter1" result="shadowBlurOuter1" stdDeviation="1.5"/><feComposite in="shadowBlurOuter1" in2="SourceAlpha" operator="out" result="shadowBlurOuter1"/><feColorMatrix in="shadowBlurOuter1" type="matrix" values="0 0 0 0 0 0 0 0 0 0 0 0 0 0 0 0 0 0 0.04 0"/></filter><rect id="path-3" width="76" height="88" x="0" y="0" rx="3"/><filter id="filter-4" width="113.2%" height="111.4%" x="-6.6%" y="-4.5%" filterUnits="objectBoundingBox"><feOffset dx="0" dy="1" in="SourceAlpha" result="shadowOffsetOuter1"/><feGaussianBlur in="shadowOffsetOuter1" result="shadowBlurOuter1" stdDeviation="1.5"/><feComposite in="shadowBlurOuter1" in2="SourceAlpha" operator="out" result="shadowBlurOuter1"/><feColorMatrix in="shadowBlurOuter1" type="matrix" values="0 0 0 0 0 0 0 0 0 0 0 0 0 0 0 0 0 0 0.04 0"/></filter></defs><g id="代码分析-" fill="none" fill-rule="evenodd" stroke="none" stroke-width="1"><g id="代码分析-列表空白页" transform="translate(-789.000000, -408.000000)"><g id="Empty-diagram" transform="translate(727.000000, 408.000000)"><g id="测试报告" transform="translate(62.000000, 0.000000)"><g id="no-issues" transform="translate(0.000000, 7.000000)"><g id="Group-4" opacity=".5" transform="translate(26.000000, 0.000000)"><g id="Rectangle"><use fill="#000" fill-opacity="1" filter="url(#filter-2)" xlink:href="#path-1"/><rect width="75" height="87" x=".5" y=".5" fill="#FFF" fill-rule="evenodd" stroke="#DFE5F0" stroke-linejoin="square" stroke-width="1" rx="3"/></g><g id="type-icons/requirements"><g transform="translate(11.000000, 12.000000)"><rect id="Rectangle" width="16" height="16" x="0" y="0" fill="#1A78FF" fill-rule="nonzero" opacity=".15" rx="2"/><g id="bulb-61" transform="translate(3.500000, 2.000000)"><path id="Path" stroke="#0070FF" stroke-width="1.778" d="M3.49157323,8.11111111 L5.50842677,8.11111111 L5.68344963,6.9034534 L6.06831739,6.68963798 C7.00143449,6.17123959 7.61111111,5.12607967 7.61111111,4 C7.61111111,2.29091978 6.20908022,0.888888889 4.5,0.888888889 C2.79091978,0.888888889 1.38888889,2.29091978 1.38888889,4 C1.38888889,5.12607967 1.99856551,6.17123959 2.93168261,6.68963798 L3.31655037,6.9034534 L3.49157323,8.11111111 Z"/><rect id="Rectangle" width="3.5" height="2" x="2.75" y="10" fill="#0C76FF"/></g></g></g><g id="type-icons/task" transform="translate(11.000000, 36.000000)"><g id="Rectangle"><rect width="16" height="16" x="0" y="0" fill="#09B1E5" fill-rule="nonzero" opacity=".146" rx="2"/><rect width="3" height="3" x="3" y="3.5" fill="#00ABE0" rx="1.5"/><rect width="5" height="2" x="8" y="4" fill="#00ABE0" rx="1"/><rect width="3" height="3" x="3" y="9.5" fill="#00ABE0" rx="1.5"/><rect width="5" height="2" x="8" y="10" fill="#00ABE0" rx="1"/></g></g><g id="type-icons/issue" fill-rule="nonzero" transform="translate(11.000000, 60.000000)"><rect id="Rectangle" width="16" height="16" x="0" y="0" fill="#FD9B47" opacity=".15" rx="2"/><circle id="Oval" cx="8" cy="8" r="4" stroke="#FF871F" stroke-width="2"/></g><rect id="Rectangle" width="34" height="3" x="33" y="15" fill="#CFD8E5" fill-rule="nonzero" rx="1"/><rect id="Rectangle-Copy-12" width="32" height="3" x="33" y="40" fill="#CFD8E5" fill-rule="nonzero" rx="1"/><rect id="Rectangle-Copy-14" width="32" height="3" x="33" y="65" fill="#CFD8E5" fill-rule="nonzero" rx="1"/><rect id="Rectangle-Copy-11" width="23" height="2" x="33" y="21" fill="#CFD8E5" fill-rule="nonzero" rx="1"/><rect id="Rectangle-Copy-13" width="17" height="2" x="33" y="46" fill="#CFD8E5" fill-rule="nonzero" rx="1"/><rect id="Rectangle-Copy-15" width="26" height="2" x="33" y="71" fill="#CFD8E5" fill-rule="nonzero" rx="1"/></g><g id="Group-4-Copy"><g id="Rectangle"><use fill="#000" fill-opacity="1" filter="url(#filter-4)" xlink:href="#path-3"/><rect width="75" height="87" x=".5" y=".5" fill="#FFF" fill-rule="evenodd" stroke="#DFE5F0" stroke-linejoin="square" stroke-width="1" rx="3"/></g><g id="分组-3" fill-rule="nonzero" transform="translate(10.000000, 15.000000)"><rect id="Rectangle" width="41" height="3" x="0" y="0" fill="#06F" rx="1"/><rect id="Rectangle备份" width="11" height="8" x="45" y="0" fill="#06F" rx="1"/><rect id="Rectangle备份-2" width="11" height="8" x="45" y="25" fill="#F5A623" rx="1"/><rect id="Rectangle备份-3" width="11" height="8" x="45" y="50" fill="#3AC27D" rx="1"/><rect id="Rectangle-Copy-11" width="27" height="2" x="0" y="6" fill="#06F" opacity=".5" rx="1"/></g><g id="分组-4" transform="translate(10.000000, 37.000000)"><rect id="Rectangle-Copy-12" width="41" height="3" x="0" y="3" fill="#CFD8E5" fill-rule="nonzero" rx="1"/><rect id="Rectangle-Copy-13" width="30" height="2" x="0" y="9" fill="#CFD8E5" fill-rule="nonzero" opacity=".5" rx="1"/></g><rect id="Rectangle-Copy-14" width="41" height="3" x="10" y="65" fill="#CFD8E5" fill-rule="nonzero" rx="1"/><g id="分组-5" fill="#CFD8E5" fill-rule="nonzero" opacity=".5" transform="translate(10.000000, 71.000000)"><rect id="Rectangle-Copy-15" width="34" height="2" x="0" y="0" rx="1"/></g></g></g></g></g></g></g></svg>