<svg xmlns="http://www.w3.org/2000/svg" xmlns:xlink="http://www.w3.org/1999/xlink" width="168" height="128" version="1.1" viewBox="0 0 168 128"><title>引导1</title><desc>Created with Sketch.</desc><defs><rect id="path-1" width="136" height="96" x="0" y="0" rx="3"/><filter id="filter-2" width="107.4%" height="110.4%" x="-3.7%" y="-4.2%" filterUnits="objectBoundingBox"><feOffset dx="0" dy="1" in="SourceAlpha" result="shadowOffsetOuter1"/><feGaussianBlur in="shadowOffsetOuter1" result="shadowBlurOuter1" stdDeviation="1.5"/><feColorMatrix in="shadowBlurOuter1" type="matrix" values="0 0 0 0 0 0 0 0 0 0 0 0 0 0 0 0 0 0 0.08 0"/></filter></defs><g id="代码分析-" fill="none" fill-rule="evenodd" stroke="none" stroke-width="1"><g id="代码分析引导页" transform="translate(-495.000000, -434.000000)"><g id="Empty-diagram" transform="translate(474.000000, 309.000000)"><g id="task-default-settings" transform="translate(21.000000, 125.000000)"><g id="window" transform="translate(16.000000, 16.000000)"><g id="Rectangle"><use fill="#000" fill-opacity="1" filter="url(#filter-2)" xlink:href="#path-1"/><use fill="#F2F4F6" fill-rule="evenodd" xlink:href="#path-1"/></g><g id="issue" transform="translate(4.000000, 13.000000)"><rect id="Rectangle" width="128" height="79" x="0" y="0" fill="#FFF" rx="2"/><g id="分组-4" fill="#CFD8E5" fill-rule="nonzero" transform="translate(57.000000, 11.000000)"><rect id="Rectangle-Copy-12" width="35" height="4" x="0" y="0" rx="1"/><rect id="Rectangle-Copy-13" width="24" height="3" x="0" y="7" opacity=".5" rx="1"/></g><g id="paragraph" fill-rule="nonzero" transform="translate(40.000000, 56.000000)"><rect id="Rectangle" width="4" height="4" x="0" y="0" fill="#919DAF"/><rect id="Rectangle" width="6" height="2" x="6" y="1" fill="#CFD8E5"/><rect id="Rectangle" width="4" height="4" x="0" y="6" fill="#919DAF"/><rect id="Rectangle" width="6" height="2" x="6" y="7" fill="#CFD8E5"/></g><g id="design-system" transform="translate(40.000000, 33.000000)"><path id="Path" fill="#CFD8E5" d="M6,11 L2,11 C1.44771525,11 1,10.5522847 1,10 L1,6 L3,6 L3,9 L6,9 L6,11 Z"/><path id="Path" fill="#CFD8E5" d="M11,6 L9,6 L9,3 L6,3 L6,1 L10,1 C10.5522847,1 11,1.44771525 11,2 L11,6 Z"/><rect id="Rectangle" width="4" height="4" x="0" y="0" fill="#919DAF"/><rect id="Rectangle" width="4" height="4" x="8" y="8" fill="#919DAF"/></g><g id="stack" fill-rule="nonzero" transform="translate(40.000000, 10.000000)"><polygon id="Path" fill="#CFD8E5" points="6 7.236 1.764 5.118 0 6 6 9 12 6 10.236 5.118"/><polygon id="Path" fill="#CFD8E5" points="6 10.236 1.764 8.118 0 9 6 12 12 9 10.236 8.118"/><polygon id="Path" fill="#919DAF" points="0 3 6 6 12 3 6 0"/></g><g id="分组-4" fill="#CFD8E5" fill-rule="nonzero" transform="translate(57.000000, 57.000000)"><rect id="Rectangle-Copy-12" width="32" height="4" x="0" y="0" rx="1"/><rect id="Rectangle-Copy-13" width="24" height="3" x="0" y="7" opacity=".5" rx="1"/></g><g id="分组-4" fill="#CFD8E5" fill-rule="nonzero" transform="translate(57.000000, 34.000000)"><rect id="Rectangle-Copy-12" width="38" height="4" x="0" y="0" rx="1"/><rect id="Rectangle-Copy-13" width="19" height="3" x="0" y="7" opacity=".5" rx="1"/></g><g id="switch" transform="translate(102.000000, 10.000000)"><rect id="Rectangle" width="16" height="10" x="0" y="0" fill="#3385FF" rx="5"/><circle id="Oval" cx="11" cy="5" r="3" fill="#FFF"/></g><g id="switch" transform="translate(102.000000, 33.000000)"><rect id="Rectangle" width="16" height="10" x="0" y="0" fill="#3385FF" opacity=".5" rx="5"/><circle id="Oval" cx="5" cy="5" r="3" fill="#FFF"/></g><g id="switch" transform="translate(102.000000, 56.000000)"><rect id="Rectangle" width="16" height="10" x="0" y="0" fill="#3385FF" opacity=".5" rx="5"/><circle id="Oval" cx="5" cy="5" r="3" fill="#FFF"/></g><g id="sidebar" transform="translate(-0.000000, 0.000000)"><path id="Rectangle" fill="#3385FF" d="M2,0 L30,0 L30,0 L30,79 L2,79 C0.8954305,79 -1.64108609e-15,78.1045695 -1.77635684e-15,77 L-1.77635684e-15,2 C-1.91162759e-15,0.8954305 0.8954305,2.02906125e-16 2,0 Z"/><rect id="矩形" width="6" height="6" x="5" y="7" fill="#FFF" opacity=".95" rx="1"/><rect id="矩形" width="9" height="2" x="14" y="9" fill="#FFF" opacity=".498" rx="1"/><rect id="矩形" width="19" height="2" x="5" y="21" fill="#FFF" opacity=".5" rx="1"/><rect id="矩形" width="16" height="2" x="5" y="30" fill="#FFF" opacity=".5" rx="1"/><rect id="矩形" width="18" height="2" x="5" y="39" fill="#FFF" opacity=".5" rx="1"/><rect id="矩形" width="19" height="2" x="5" y="48" fill="#FFF" opacity=".5" rx="1"/></g></g><g id="title"><path id="Rectangle-Copy-10" fill="#606C80" d="M3,0 L133,0 C134.656854,-3.04359188e-16 136,1.34314575 136,3 L136,9 L136,9 L0,9 L0,3 C-2.02906125e-16,1.34314575 1.34314575,-5.83819232e-16 3,0 Z" opacity=".2"/><circle id="Oval" cx="5.5" cy="4.5" r="1.5" fill="#FFF" opacity=".747"/><circle id="Oval" cx="11.5" cy="4.5" r="1.5" fill="#FFF" opacity=".747"/><circle id="Oval" cx="17.5" cy="4.5" r="1.5" fill="#FFF" opacity=".747"/></g></g></g></g></g></g></svg>