<svg xmlns="http://www.w3.org/2000/svg" xmlns:xlink="http://www.w3.org/1999/xlink" width="168" height="128" version="1.1" viewBox="0 0 168 128"><title>iteration-intro-1</title><desc>Created with Sketch.</desc><defs><rect id="path-1" width="136" height="96" x="0" y="0" rx="3"/><filter id="filter-2" width="107.4%" height="110.4%" x="-3.7%" y="-4.2%" filterUnits="objectBoundingBox"><feOffset dx="0" dy="1" in="SourceAlpha" result="shadowOffsetOuter1"/><feGaussianBlur in="shadowOffsetOuter1" result="shadowBlurOuter1" stdDeviation="1.5"/><feColorMatrix in="shadowBlurOuter1" type="matrix" values="0 0 0 0 0 0 0 0 0 0 0 0 0 0 0 0 0 0 0.08 0"/></filter><path id="path-3" d="M0,0 L68,0 L68,87 L2,87 C0.8954305,87 1.3527075e-16,86.1045695 0,85 L0,0 L0,0 Z"/><filter id="filter-4" width="119.1%" height="114.9%" x="-8.1%" y="-6.3%" filterUnits="objectBoundingBox"><feOffset dx="1" dy="1" in="SourceAlpha" result="shadowOffsetOuter1"/><feGaussianBlur in="shadowOffsetOuter1" result="shadowBlurOuter1" stdDeviation="2"/><feColorMatrix in="shadowBlurOuter1" type="matrix" values="0 0 0 0 0 0 0 0 0 0 0 0 0 0 0 0 0 0 0.04 0"/></filter><path id="path-5" d="M5,19 L63,19 C63.5522847,19 64,19.4477153 64,20 L64,80 C64,80.5522847 63.5522847,81 63,81 L4,81 L4,81 L4,20 C4,19.4477153 4.44771525,19 5,19 Z"/><mask id="mask-6" width="60" height="62" x="0" y="0" fill="#fff" maskContentUnits="userSpaceOnUse" maskUnits="objectBoundingBox"><use xlink:href="#path-5"/></mask></defs><g id="代码分析-" fill="none" fill-rule="evenodd" stroke="none" stroke-width="1"><g id="代码分析-重复代码详情-选择代码块-" transform="translate(-1056.000000, -378.000000)"><g id="编组-12" transform="translate(1023.000000, 378.000000)"><g id="iteration-intro-1" transform="translate(33.000000, 0.000000)"><g id="window" transform="translate(16.000000, 17.000000)"><g id="Rectangle"><use fill="#000" fill-opacity="1" filter="url(#filter-2)" xlink:href="#path-1"/><use fill="#F2F4F6" fill-rule="evenodd" xlink:href="#path-1"/></g><g id="issue" transform="translate(0.000000, 9.000000)"><g id="Rectangle"><use fill="#000" fill-opacity="1" filter="url(#filter-4)" xlink:href="#path-3"/><use fill="#FFF" fill-rule="evenodd" xlink:href="#path-3"/></g><use id="Rectangle" fill="#E5EAEE" fill-opacity=".25" stroke="#DFE5F0" stroke-dasharray="2" stroke-width="2" mask="url(#mask-6)" xlink:href="#path-5"/><path id="Rectangle" fill="#E5EAEE" fill-opacity=".412" d="M17,19 L64,19 L64,81 L19,81 C17.8954305,81 17,80.1045695 17,79 L17,19 L17,19 Z"/><path id="Rectangle" fill="#F5A623" d="M7,22 L9,22 L9,78 L7,78 L7,22 Z"/><path id="Rectangle备份" fill="#F5A623" d="M12,22 L14,22 L14,78 L12,78 L12,22 Z"/><rect id="Rectangle-Copy-12" width="34" height="6" x="4" y="3" fill="#CFD8E5" fill-rule="nonzero" opacity=".5" rx="1"/><path id="Rectangle" fill="#3385FF" d="M43,3 L63,3 C63.5522847,3 64,3.44771525 64,4 L64,8 C64,8.55228475 63.5522847,9 63,9 L43,9 C42.4477153,9 42,8.55228475 42,8 L42,4 C42,3.44771525 42.4477153,3 43,3 Z"/><rect id="Rectangle-Copy-12备份" width="60" height="3" x="4" y="12" fill="#CFD8E5" fill-rule="nonzero" opacity=".5" rx="1"/><rect id="Rectangle-Copy-12备份-3" width="37" height="6" x="22" y="25" fill="#CFD8E5" fill-rule="nonzero" opacity=".249" rx="1"/><rect id="Rectangle-Copy-12备份-4" width="37" height="6" x="22" y="36" fill="#CFD8E5" fill-rule="nonzero" opacity=".249" rx="1"/><rect id="Rectangle-Copy-12备份-5" width="37" height="6" x="22" y="47" fill="#CFD8E5" fill-rule="nonzero" opacity=".249" rx="1"/><rect id="Rectangle-Copy-12备份-6" width="37" height="6" x="22" y="58" fill="#CFD8E5" fill-rule="nonzero" opacity=".249" rx="1"/><rect id="Rectangle-Copy-12备份-7" width="37" height="6" x="22" y="69" fill="#CFD8E5" fill-rule="nonzero" opacity=".249" rx="1"/></g><g id="title"><path id="Rectangle-Copy-10" fill="#606C80" d="M3,0 L133,0 C134.656854,-3.04359188e-16 136,1.34314575 136,3 L136,9 L136,9 L0,9 L0,3 C-2.02906125e-16,1.34314575 1.34314575,-5.83819232e-16 3,0 Z" opacity=".2"/><circle id="Oval" cx="5.5" cy="4.5" r="1.5" fill="#FFF" opacity=".747"/><circle id="Oval" cx="11.5" cy="4.5" r="1.5" fill="#FFF" opacity=".747"/><circle id="Oval" cx="17.5" cy="4.5" r="1.5" fill="#FFF" opacity=".747"/></g></g><g id="issue" fill="#E7EBF2" transform="translate(102.000000, 54.000000)"><g id="编组-10"><rect id="Rectangle" width="20" height="16" x="5" y="0" rx="2"/><rect id="Rectangle-Copy-12" width="31" height="3" x="0" y="19" fill-rule="nonzero" rx="1"/><rect id="Rectangle-Copy-12备份-2" width="22" height="3" x="4" y="25" fill-rule="nonzero" rx="1"/></g></g></g></g></g></g></svg>